<svg xmlns="http://www.w3.org/2000/svg" width="251" height="250" viewBox="0 0 251 250">
  <title>climbats-new-white</title>
  <g id="Layer_2" data-name="Layer 2">
    <g id="Layer_1-2" data-name="Layer 1">
      <g>
        <path d="M132.9,43.5h2.2V29.8h-2.2v-4h10.5a6.6,6.6,0,0,1,4.8,1.9,7.7,7.7,0,0,1,1.4,2.1,6.9,6.9,0,0,1,.4,2.5,5.3,5.3,0,0,1-.5,2.6,4.1,4.1,0,0,1-1.6,1.6,4.6,4.6,0,0,1,1.7,1.7,4.9,4.9,0,0,1,.6,2.5,5.8,5.8,0,0,1-.5,2.6,6.7,6.7,0,0,1-1.3,2.2,7.4,7.4,0,0,1-2.1,1.3,5.8,5.8,0,0,1-2.6.5H132.9Zm6.9-13.7v4.8h3.4l.8-.2.6-.5a2,2,0,0,0,.4-.8,1.9,1.9,0,0,0,.2-.8,2.9,2.9,0,0,0-.2-.9,2,2,0,0,0-.4-.8,1.7,1.7,0,0,0-.6-.6l-.8-.2Zm0,8.7v5h3.6a1.2,1.2,0,0,0,.8-.2l.6-.5a2.5,2.5,0,0,0,.4-.9,2.9,2.9,0,0,0,.2-.9,3,3,0,0,0-.2-1,3,3,0,0,0-.4-.8l-.6-.5-.8-.2Z" style="fill: #fff"/>
        <path d="M160.9,46.6l-.9.6-.8.3-.9.2h-1a5.9,5.9,0,0,1-2.3-.4,5.2,5.2,0,0,1-1.8-1,4.2,4.2,0,0,1-1.1-1.5,5.3,5.3,0,0,1-.4-1.8,5.3,5.3,0,0,1,.4-1.9,5.1,5.1,0,0,1,3-2.5,8.8,8.8,0,0,1,2.4-.3h1.9l1.5.2v-.4a3,3,0,0,0-.2-1c-.2-.2-.4-.5-.6-.6l-.9-.4H158a9,9,0,0,0-2.4.2,7.7,7.7,0,0,0-1.9.8l-1.4-2.8a12.7,12.7,0,0,1,3.1-1.5,8.8,8.8,0,0,1,3.3-.5,10.9,10.9,0,0,1,2.6.3,5.4,5.4,0,0,1,2,1,4.2,4.2,0,0,1,1.3,1.8,6.8,6.8,0,0,1,.5,2.7v5.3H167v3.9h-6.1Zm-3.2-2.2a5.7,5.7,0,0,0,1.8-.3l1.4-.8V41.4h-4l-.6.3a1,1,0,0,0-.4.5,1.1,1.1,0,0,0-.2.6,1.6,1.6,0,0,0,.5,1.1A2.1,2.1,0,0,0,157.7,44.4Z" style="fill: #fff"/>
        <path d="M175.3,32.7h3v3.7h-3v7.1l.3.6.4.2h1.5l.8-.3.6,2.8-1.6.7a6.6,6.6,0,0,1-2.1.3,4.7,4.7,0,0,1-1.7-.3,4.2,4.2,0,0,1-1.4-.9,3.8,3.8,0,0,1-.9-1.5,4.8,4.8,0,0,1-.4-2.2V36.4h-2.1V32.7h2.1V29.2l4.4-2.1Z" style="fill: #fff"/>
        <path d="M190,36.5c-.1-.2-.4-.3-.6-.5l-1.1-.4h-2l-.7.2-.4.4c-.2.1-.2.3-.2.5v.3c.1.2.1.3.2.3l.4.3.6.2,2.7.5,2.4.7a7.4,7.4,0,0,1,1.6,1,3.8,3.8,0,0,1,.9,1.3,4.2,4.2,0,0,1-.3,3.7,4.1,4.1,0,0,1-1.6,1.6,10.2,10.2,0,0,1-2.1,1,10.7,10.7,0,0,1-2.5.3h-1.4l-1.2-.3-.9-.4-.8-.5h-2.5v-4h4a.9.9,0,0,0,.3.7,1.7,1.7,0,0,0,.6.6l.9.3h1a3.2,3.2,0,0,0,1.9-.4.9.9,0,0,0,.6-.8.9.9,0,0,0-.3-.7,1.9,1.9,0,0,0-1-.5l-2.8-.6a7.1,7.1,0,0,1-3.8-1.6,3.8,3.8,0,0,1-1.3-3,3,3,0,0,1,.5-1.9,3.7,3.7,0,0,1,1.3-1.5,6.3,6.3,0,0,1,2-1,10.1,10.1,0,0,1,2.5-.3h1.6a2.7,2.7,0,0,1,1.2.3l1,.4a1.8,1.8,0,0,1,.7.5h2.5v3.9h-3.7A1.1,1.1,0,0,0,190,36.5Z" style="fill: #fff"/>
        <path d="M217.6,48.1l-2.9-2.9a10,10,0,0,1-2.6,1.8,8.8,8.8,0,0,1-3.3.6,6.2,6.2,0,0,1-2.7-.5,6.4,6.4,0,0,1-2.2-1.4,8,8,0,0,1-1.5-2.1,7.5,7.5,0,0,1-.5-2.6,6.6,6.6,0,0,1,.8-3.2,8.2,8.2,0,0,1,2.4-2.5h0l-.3-.3a6.3,6.3,0,0,1-1.3-2,7,7,0,0,1-.5-2.5,4.2,4.2,0,0,1,.5-2.2,5.9,5.9,0,0,1,1.3-1.9,6.2,6.2,0,0,1,1.9-1.2,5.2,5.2,0,0,1,2.4-.5,6.2,6.2,0,0,1,2.5.5,5.3,5.3,0,0,1,2,1.3,5.7,5.7,0,0,1,1.2,1.8,5.4,5.4,0,0,1,.4,2.2A7.7,7.7,0,0,1,215,32a3.5,3.5,0,0,1-.6,1.4l-.8,1.2-1,.9-.5.3-.5.3,2.4,2.3.3-1.2a5.2,5.2,0,0,0,.2-1.1h4.3c-.1.9-.3,1.8-.5,2.8a23.1,23.1,0,0,1-1,2.8l3.6,3.5Zm-11.2-7.2a1.5,1.5,0,0,0,.2.9,1.8,1.8,0,0,0,.5.7,1.6,1.6,0,0,0,.8.6l1,.2a3.8,3.8,0,0,0,1.6-.3,5.7,5.7,0,0,0,1.3-.8l-3.7-3.8a1.8,1.8,0,0,0-.7.5l-.6.5-.3.7A1.9,1.9,0,0,0,206.4,40.9Zm3.8-8.6a1.6,1.6,0,0,0,.6-.8,1.6,1.6,0,0,0,.2-1,1.5,1.5,0,0,0-.1-.7,4.3,4.3,0,0,0-.4-.7l-.6-.4h-1.6l-.6.4-.5.6c0,.3-.1.5-.1.8a4.3,4.3,0,0,0,.2,1.1,2.4,2.4,0,0,0,.6.9l.8.7.8-.4Z" style="fill: #fff"/>
        <path d="M147,64.8a5.8,5.8,0,0,0-1.4-1.6,2.7,2.7,0,0,0-1.4-.7,3.9,3.9,0,0,0-1.5-.2,4.6,4.6,0,0,0-2.3.5,5.9,5.9,0,0,0-1.7,1.5,7.2,7.2,0,0,0-1.2,2.1,8.6,8.6,0,0,0,0,5.2,10.3,10.3,0,0,0,1.1,2.1,4.9,4.9,0,0,0,1.8,1.4,4.4,4.4,0,0,0,2.3.6,3.7,3.7,0,0,0,1.5-.3l1.4-.7,1.1-1.1a7.5,7.5,0,0,0,.7-1.2l4.5,1.3a8.5,8.5,0,0,1-1.3,2.5,8,8,0,0,1-2,2.1,11.5,11.5,0,0,1-2.7,1.4,11.3,11.3,0,0,1-3.2.5,11.8,11.8,0,0,1-2.8-.4,9.6,9.6,0,0,1-2.5-1.2,8.7,8.7,0,0,1-2.1-1.7,12.4,12.4,0,0,1-1.7-2.3,16.9,16.9,0,0,1-1-2.7,13.5,13.5,0,0,1-.4-2.9,12.7,12.7,0,0,1,.8-4.4,11.8,11.8,0,0,1,2.3-3.5,10,10,0,0,1,3.3-2.4,9.1,9.1,0,0,1,4.1-.9,8.4,8.4,0,0,1,2.9.5,6.1,6.1,0,0,1,2.6,1.7h3.2v4.8Z" style="fill: #fff"/>
        <path d="M153.9,57.7h6.7V75.9h2.2v3.9h-8.9V75.9h2.3V61.5h-2.3Z" style="fill: #fff"/>
        <path d="M165,65h6.6V75.9h2.1v3.9H165V75.9h2.2v-7H165Zm2-4.7a3,3,0,0,1,.2-1,2.2,2.2,0,0,1,.5-.8l.8-.5a2.2,2.2,0,0,1,1.1-.2,1.5,1.5,0,0,1,.9.2l.8.5.6.8a3,3,0,0,1,.2,1,3.6,3.6,0,0,1-.2,1l-.6.8-.8.5a1.5,1.5,0,0,1-.9.2,2.2,2.2,0,0,1-1.1-.2l-.8-.5a2.2,2.2,0,0,1-.5-.8A3.6,3.6,0,0,1,167,60.3Z" style="fill: #fff"/>
        <path d="M176,65h6.7v1.3a7,7,0,0,1,2.1-1.1,5.9,5.9,0,0,1,2.3-.5,6.5,6.5,0,0,1,2.9.6,4.7,4.7,0,0,1,1.9,1.8l1-.9,1.3-.8,1.4-.5,1.5-.2a5.7,5.7,0,0,1,4.2,1.5,6.4,6.4,0,0,1,1.4,4.4v5.3h2.1v3.9h-6.7V71.3a2.4,2.4,0,0,0-.7-1.9,2.1,2.1,0,0,0-1.8-.7,4,4,0,0,0-1.5.3,7.9,7.9,0,0,0-1.4,1.3v5.6h2.2v3.9h-6.7V71.3a3.6,3.6,0,0,0-.2-1.1,5.6,5.6,0,0,0-.5-.8l-.8-.5a1.6,1.6,0,0,0-1-.2,2.1,2.1,0,0,0-1.5.3,3.1,3.1,0,0,0-1.4,1.2v5.7h2.3v3.9H176V75.9h2.2v-7H176Z" style="fill: #fff"/>
        <path d="M215.4,79l-.9.5-.9.4-.8.2h-1a8,8,0,0,1-2.3-.3,7.7,7.7,0,0,1-1.8-1,7.2,7.2,0,0,1-1.1-1.5,4.7,4.7,0,0,1,0-3.8,4.2,4.2,0,0,1,1.1-1.5,5.1,5.1,0,0,1,1.8-.9,6.9,6.9,0,0,1,2.5-.4h1.8l1.6.3v-.5a2.4,2.4,0,0,0-.2-.9l-.6-.7-1-.4h-1.1a8.8,8.8,0,0,0-2.4.3,6.2,6.2,0,0,0-1.9.7l-1.4-2.7a14.6,14.6,0,0,1,3-1.6,12.7,12.7,0,0,1,3.4-.5,9.5,9.5,0,0,1,2.5.3,6.8,6.8,0,0,1,2.1,1,5.9,5.9,0,0,1,1.3,1.8,7.7,7.7,0,0,1,.4,2.7v5.4h2v3.9h-6.1Zm-3.3-2.2a4.1,4.1,0,0,0,1.9-.4,3.9,3.9,0,0,0,1.4-.8V73.8h-4.1a.5.5,0,0,0-.5.3.8.8,0,0,0-.4.4,1.3,1.3,0,0,0,.3,1.7A2,2,0,0,0,212.1,76.8Z" style="fill: #fff"/>
        <path d="M229.8,65h2.9v3.8h-2.9V75c0,.4.1.6.1.9l.3.5.4.3h1.4l.9-.2.6,2.7-1.6.8-2.2.2a4.5,4.5,0,0,1-1.6-.3,4.2,4.2,0,0,1-1.4-.9,3.8,3.8,0,0,1-.9-1.5,4.6,4.6,0,0,1-.4-2.1V68.8h-2.2V65h2.2V61.5l4.4-2.1Z" style="fill: #fff"/>
        <path d="M239.1,73.3v.5a3.7,3.7,0,0,0,.5,1.1l.9.8,1.1.5,1.3.2h1.2l1.1-.2,1.1-.3,1-.4,1.6,2.9-1.5.8a3.5,3.5,0,0,1-1.4.6,3.2,3.2,0,0,1-1.4.3l-1.8.2a8.9,8.9,0,0,1-3.4-.7,7.4,7.4,0,0,1-2.5-1.7,8.2,8.2,0,0,1-1.6-2.5,10.6,10.6,0,0,1-.5-3.1,7.3,7.3,0,0,1,.6-3,7,7,0,0,1,1.5-2.5,7.4,7.4,0,0,1,2.5-1.7,7.8,7.8,0,0,1,3.1-.6,7.5,7.5,0,0,1,3.1.6,6.3,6.3,0,0,1,2.3,1.6,5.7,5.7,0,0,1,1.4,2.4,13.6,13.6,0,0,1,.6,2.9v1.4Zm3.4-5.3h-1.3l-1,.6-.6.7a3.2,3.2,0,0,0-.3.9h6.1a1.6,1.6,0,0,0-.3-.9,1.8,1.8,0,0,0-.5-.7l-.8-.6Z" style="fill: #fff"/>
        <path d="M147,97.1a7.9,7.9,0,0,0-1.4-1.6l-1.4-.7-1.5-.2a4.6,4.6,0,0,0-2.3.6,5.5,5.5,0,0,0-1.7,1.4,7.2,7.2,0,0,0-1.2,2.1,8.6,8.6,0,0,0,0,5.2,10.3,10.3,0,0,0,1.1,2.1,6.5,6.5,0,0,0,1.8,1.5,5.6,5.6,0,0,0,2.3.5,3.7,3.7,0,0,0,1.5-.3l1.4-.7,1.1-1a5.4,5.4,0,0,0,.7-1.3l4.5,1.3a9.1,9.1,0,0,1-1.3,2.6,6.4,6.4,0,0,1-2,2,8.7,8.7,0,0,1-2.7,1.4,11.3,11.3,0,0,1-3.2.5,8.2,8.2,0,0,1-2.8-.4,9.5,9.5,0,0,1-2.5-1.1,9.1,9.1,0,0,1-2.1-1.8,11.8,11.8,0,0,1-1.7-2.2c-.4-.9-.7-1.8-1-2.7a15.4,15.4,0,0,1-.4-3A12.2,12.2,0,0,1,133,97a11.1,11.1,0,0,1,2.3-3.6,10,10,0,0,1,3.3-2.4,10.7,10.7,0,0,1,4.1-.8,8.5,8.5,0,0,1,2.9.4,8.8,8.8,0,0,1,2.6,1.7h3.2v4.8Z" style="fill: #fff"/>
        <path d="M153.9,90h6.6v8.8a4.4,4.4,0,0,1,1.9-1.2,5.9,5.9,0,0,1,6.3,1,6.2,6.2,0,0,1,1.4,4.3v5.3h2.1v3.9h-6.6v-8.2a2.9,2.9,0,0,0-.6-1.9,1.8,1.8,0,0,0-1.5-.7,3.5,3.5,0,0,0-1.4.3l-1.6,1.1v5.5h2.2v3.9h-8.8v-3.9h2.3V93.9h-2.3Z" style="fill: #fff"/>
        <path d="M182.7,111.3l-.9.6-.8.3-.9.2h-1a5.9,5.9,0,0,1-2.3-.4,5.2,5.2,0,0,1-1.8-1,4.2,4.2,0,0,1-1.1-1.5,5.8,5.8,0,0,1-.4-1.8,5.3,5.3,0,0,1,.4-1.9,5.1,5.1,0,0,1,3-2.5,8.8,8.8,0,0,1,2.4-.3h1.9l1.5.2V103a3,3,0,0,0-.2-1l-.6-.7a3.2,3.2,0,0,0-.9-.3l-1.2-.2a8.8,8.8,0,0,0-2.4.3,7.7,7.7,0,0,0-1.9.8l-1.4-2.8a9.9,9.9,0,0,1,3.1-1.5,8.8,8.8,0,0,1,3.3-.5,10.9,10.9,0,0,1,2.6.3,5.4,5.4,0,0,1,2,1,4.2,4.2,0,0,1,1.3,1.8,6.8,6.8,0,0,1,.5,2.7v5.3h1.9v3.9h-6.1Zm-3.2-2.2,1.8-.3,1.4-.8v-1.9h-4.1l-.5.3a1,1,0,0,0-.4.5.8.8,0,0,0-.2.6,1.6,1.6,0,0,0,.5,1.1A2.1,2.1,0,0,0,179.5,109.1Z" style="fill: #fff"/>
        <path d="M203.7,103.6a2.9,2.9,0,0,0-.7-1.9,2.1,2.1,0,0,0-1.7-.7,4,4,0,0,0-1.5.3,4.4,4.4,0,0,0-1.5,1.3v5.6h2.4v3.9h-9.2v-3.9h2.2v-6.9h-2.1V97.4h6.7v1.3a7.2,7.2,0,0,1,2.1-1.2,8.6,8.6,0,0,1,2.4-.4,5.6,5.6,0,0,1,4.1,1.5,6.2,6.2,0,0,1,1.4,4.3v5.3h2.1v3.9h-6.7Z" style="fill: #fff"/>
        <path d="M222.9,111.3a3.4,3.4,0,0,1-1.5.7l-1.7.2a7.8,7.8,0,0,1-3.1-.6,7.2,7.2,0,0,1-2.5-1.6,7.8,7.8,0,0,1-1.6-2.4,8.1,8.1,0,0,1-.6-3.1,7.2,7.2,0,0,1,.6-2.9,7.5,7.5,0,0,1,1.5-2.4,7.8,7.8,0,0,1,2.4-1.6,6.8,6.8,0,0,1,5-.4l1.5.5v-.3h4.4v14.1a7.9,7.9,0,0,1-.7,3.2,6.3,6.3,0,0,1-4.2,3.6,9.5,9.5,0,0,1-3,.4,10.5,10.5,0,0,1-3.6-.5,9.7,9.7,0,0,1-2.9-1.4l1.8-3.2a10,10,0,0,0,2.1,1,7.5,7.5,0,0,0,2.6.4l1.4-.2a2.4,2.4,0,0,0,1.1-.6,2.4,2.4,0,0,0,.8-1.1,4.2,4.2,0,0,0,.2-1.7Zm-3-3a3.2,3.2,0,0,0,3-1.9v-3.6a8.6,8.6,0,0,0-1.3-1.4,4.1,4.1,0,0,0-1.9-.5,3.1,3.1,0,0,0-1.3.3,2.4,2.4,0,0,0-1.2.7,3.6,3.6,0,0,0-.8,1.2,3.2,3.2,0,0,0-.3,1.4,4.1,4.1,0,0,0,.3,1.6,8.3,8.3,0,0,0,.8,1.2,4.1,4.1,0,0,0,1.1.7A4,4,0,0,0,219.9,108.3Z" style="fill: #fff"/>
        <path d="M234,105.7v.4a3.7,3.7,0,0,0,.5,1.1l.9.9,1.2.4a2.5,2.5,0,0,0,1.2.2H239l1.2-.2,1-.3,1-.4,1.6,2.9a6,6,0,0,1-1.5.9l-1.3.6-1.5.3h-1.8a9,9,0,0,1-3.4-.6,9.2,9.2,0,0,1-2.5-1.7,6.8,6.8,0,0,1-1.5-2.6,7.7,7.7,0,0,1-.6-3,8.1,8.1,0,0,1,2.2-5.6,6.7,6.7,0,0,1,2.4-1.6,8.3,8.3,0,0,1,3.2-.6,7.3,7.3,0,0,1,3,.5,6.3,6.3,0,0,1,2.3,1.6,7.2,7.2,0,0,1,1.4,2.4,9.4,9.4,0,0,1,.6,3v1.4Zm3.4-5.4-1.4.2a3.1,3.1,0,0,0-1,.5l-.6.8-.3.9h6.1a2.9,2.9,0,0,0-.2-.9,2.4,2.4,0,0,0-.6-.8l-.8-.5Z" style="fill: #fff"/>
        <rect width="119.8" height="119.75" style="fill: #fff"/>
        <rect x="131.3" y="130.2" width="119.8" height="119.75" style="fill: #fff"/>
        <rect y="130.2" width="119.8" height="119.75" style="fill: #fad02c"/>
        <path d="M111.3,44.7,87.5,31.5a.4.4,0,0,0-.7.2c-5.4,9.2-14.4,14.4-21.3,17L67,38.5c0-.2-.1-.4-.3-.4s-.5-.1-.6.1l-7.2,7.5-7.2-7.5c-.1-.2-.4-.2-.6-.1s-.3.2-.3.4l1.5,10.3c-5.9-2.3-15.9-7.3-21.5-17.1a.5.5,0,0,0-.7-.2L6.3,44.7a.5.5,0,0,0-.3.5c0,.2.2.3.4.4l2.9.9A38.1,38.1,0,0,1,31.7,65.2a.5.5,0,0,0,.5.3C52,65.5,58.3,84.8,58.3,85a.6.6,0,0,0,1,0c.1-.2,6.3-19.5,26.2-19.5.2,0,.3-.1.4-.3a38.1,38.1,0,0,1,22.5-18.7l2.9-.9c.2,0,.3-.2.3-.4A.5.5,0,0,0,111.3,44.7Z" style="fill: #333652"/>
        <path d="M70.1,173.8c3.2-3.9,1.6-10.4,1.6-10.4s-7.3,2.2-10.5,6.1l-.3.5v-4.9c1.7-.1,6.6-.6,9.2-3.8s1.6-10.4,1.6-10.4S64.4,153,61.2,157l-.3.4v-5c1.8-.2,5.5-.8,7.5-3.3s1.4-9.2,1.4-9.2-6.4,1.9-9.2,5.4a5.1,5.1,0,0,0-.9,1.6,7.1,7.1,0,0,0-1.3-2.4c-2.8-3.5-9.2-5.4-9.2-5.4s-1.4,5.7,1.4,9.2,4.9,3,6.9,3.2v2.6l-.5-.6c-3.1-3.9-10.5-6.1-10.5-6.1s-1.5,6.5,1.7,10.5,7.6,3.7,9.3,3.8v5l-.5-.6c-3.1-4-10.5-6.1-10.5-6.1s-1.5,6.5,1.7,10.4,7.6,3.8,9.3,3.8v5l-.5-.6c-3.1-3.9-10.5-6.1-10.5-6.1S45,179,48.2,183s7.6,3.7,9.3,3.8v4.9l-.5-.5c-3.1-4-10.5-6.1-10.5-6.1s-1.5,6.5,1.7,10.4,7.6,3.8,9.3,3.8v5l-.5-.6c-3.1-3.9-10.5-6.1-10.5-6.1S45,204.1,48.2,208s7.6,3.8,9.3,3.9v4.9l-.5-.6c-3.1-3.9-10.5-6.1-10.5-6.1s-1.5,6.5,1.7,10.5,7.6,3.7,9.3,3.8v14.2h3.4V227.8c1.7-.1,6.6-.6,9.2-3.8s1.6-10.4,1.6-10.4-7.3,2.1-10.5,6.1l-.3.4v-4.8c1.7-.1,6.6-.6,9.2-3.8S71.7,201,71.7,201s-7.3,2.2-10.5,6.1l-.3.5v-4.9c1.7,0,6.6-.6,9.2-3.8s1.6-10.4,1.6-10.4-7.3,2.1-10.5,6.1l-.3.4v-4.8c1.7-.1,6.6-.6,9.2-3.8s1.6-10.5,1.6-10.5-7.3,2.2-10.5,6.1l-.3.5v-4.8c1.7-.1,6.6-.6,9.2-3.9M57.2,219l-.2-.4-.4-.4-.4-.6-.3-.3-.3-.2-.3-.3-.3-.3-.4-.2-.3-.3-.8-.4-.7-.5-1.3-.8-.5-.4-.3-.4-.2-.3h.1l.2.2.4.2.5.3,1.4.6.8.4.8.5.4.2.4.3.3.3.3.4.3.3c.1.1.1.2.2.4l.4.6a1.4,1.4,0,0,1,.2.6c.1.2.1.4.2.5v.3h.1l-.3-.4Zm0-12.5-.2-.4-.4-.5-.4-.5-.3-.3-.3-.3-.3-.2L55,204l-.4-.3-.3-.2-.8-.5-.7-.4-1.3-.9a1,1,0,0,1-.5-.4l-.3-.4c-.1-.1-.1-.2-.2-.2h.1l.2.2.4.3.5.2,1.4.7a2,2,0,0,1,.8.4l.8.4.4.3.4.3.3.3.3.3.3.4.2.3a2.5,2.5,0,0,1,.4.7,1.4,1.4,0,0,1,.2.6c.1.1.1.3.2.4v.5l-.3-.4Zm0-12.5a.5.5,0,0,0-.2-.4,1,1,0,0,0-.4-.5l-.4-.6-.3-.2-.3-.3-.3-.3-.3-.2-.4-.3-.3-.2-.8-.5-.7-.5a5.7,5.7,0,0,1-1.3-.8l-.5-.4-.3-.4-.2-.3h.1l.2.2.4.2.5.3,1.4.6.8.4.8.5.4.3.4.3.3.3.3.3.3.3.2.4.4.6a2.1,2.1,0,0,1,.2.6c.1.2.1.4.2.5v.3h.1l-.3-.3Zm0-12.6L57,181l-.4-.5-.4-.5-.3-.3-.3-.2-.3-.3-.3-.3-.4-.2-.3-.3-.8-.4-.7-.5-1.3-.8c-.2-.2-.4-.3-.5-.5l-.3-.3c-.1-.2-.1-.3-.2-.3h.3l.4.3.5.3,1.4.6a2,2,0,0,1,.8.4l.8.5.4.2.4.3.3.3.3.4.3.3.2.3.4.7a1.4,1.4,0,0,1,.2.6l.2.5v.3a.1.1,0,0,1,.1.1l-.3-.4Zm0-12.5-.2-.4-.4-.5-.4-.5-.3-.3-.3-.3-.3-.3-.3-.2-.4-.3-.3-.2-.8-.5-.7-.4-1.3-.9-.5-.4-.3-.4-.2-.3h.1l.2.2.4.3.5.2,1.4.6.8.4.8.5.4.3.4.3.3.3.3.3.3.4.2.3a1.6,1.6,0,0,1,.4.7,1.7,1.7,0,0,1,.2.5c.1.2.1.4.2.5v.3h.1l-.3-.3Zm0-12.6c0-.1-.1-.2-.2-.4l-.4-.4-.4-.6-.3-.3-.3-.2-.3-.3-.3-.3-.4-.2-.3-.3-.8-.4-.7-.5-1.3-.8-.5-.4-.3-.4-.2-.3h.1l.2.2.4.2.5.3,1.4.6.8.4.8.5.4.2.4.3.3.3.3.4.3.3.2.4.4.6a1.4,1.4,0,0,1,.2.6c.1.2.1.4.2.5v.3h.1l-.3-.4Zm1.4-9.4-.2-.3-.4-.4-.4-.5-.2-.2c-.1-.1-.2-.2-.2-.3l-.3-.2-.3-.2-.3-.3-.3-.2-.7-.4-.6-.4-1.2-.7c-.1-.2-.3-.3-.4-.4l-.3-.3v-.3h0l.2.2.4.2.5.2,1.2.6.7.3.7.4.3.3.3.2.3.3.3.3.2.3.3.3.3.6c.1.1.1.3.2.5a.6.6,0,0,1,.1.4v.3h0l-.2-.4ZM61,159.2c.1-.2.1-.4.3-.6l.3-.6.3-.4.3-.3c.1-.1.1-.2.3-.3l.3-.3.4-.3.3-.3.8-.5.8-.4,1.4-.6.6-.3.4-.2.2-.2h0a.4.4,0,0,1-.1.3l-.3.4-.5.4-1.3.8-.8.5-.7.5-.4.2-.3.3-.3.2-.3.3-.3.3-.3.2-.5.6-.3.5-.3.4-.2.3h0a.4.4,0,0,1,.1-.3,1.1,1.1,0,0,1,.1-.5Zm-.6-11.5v.3h0v-.2a.6.6,0,0,0,.1-.4l.3-.6a.9.9,0,0,1,.3-.5l.2-.3.2-.3.3-.3.3-.3.3-.3.4-.2.7-.4.6-.4,1.3-.5.5-.2.3-.2.2-.2h0s0,.2-.1.2l-.3.4-.4.3a6.2,6.2,0,0,1-1.2.8l-.6.4-.6.4-.4.2-.3.2-.3.3-.2.2-.3.2-.2.3a1,1,0,0,0-.4.5l-.3.4-.3.3Zm.6,74.2c.1-.1.1-.4.3-.6l.3-.6.3-.4.3-.3.3-.3.3-.3.4-.3.3-.3.8-.5.8-.4,1.4-.6.6-.3.4-.2c.1-.1.1-.2.2-.2h0a.4.4,0,0,1-.1.3l-.3.4-.5.4-1.3.8-.8.5-.7.5-.4.2-.3.3-.3.2-.3.3-.3.3-.3.2-.5.6-.3.5-.3.4-.2.3h0a.4.4,0,0,1,.1-.3,1.1,1.1,0,0,1,.1-.5Zm0-12.5c.1-.2.1-.4.3-.6l.3-.7.3-.3.3-.3c.1-.1.1-.3.3-.4l.3-.3.4-.3.3-.2.8-.5.8-.4,1.4-.6.6-.3.4-.3h.2v.3l-.3.3-.5.5-1.3.8-.8.5-.7.4-.4.3-.3.2-.3.3-.3.3-.3.2-.3.3-.5.5-.3.5-.3.4-.2.4h0a.4.4,0,0,1,.1-.3.9.9,0,0,1,.1-.5Zm0-12.6c.1-.1.1-.3.3-.5l.3-.7.3-.3.3-.4c.1-.1.1-.2.3-.3l.3-.3.4-.3.3-.3.8-.5.8-.4,1.4-.6.6-.2.4-.3.2-.2h0a.4.4,0,0,1-.1.3l-.3.4-.5.4-1.3.9-.8.4-.7.5-.4.2-.3.3-.3.2-.3.3-.3.3-.3.3-.5.5-.3.5-.3.4-.2.3h0a.5.5,0,0,1,.1-.3,1.1,1.1,0,0,1,.1-.5Zm0-12.5c.1-.2.1-.4.3-.6l.3-.6.3-.4.3-.3.3-.4.3-.3.4-.3.3-.2.8-.5.8-.4,1.4-.6.6-.3.4-.2.2-.2h0a.4.4,0,0,1-.1.3l-.3.4-.5.4-1.3.8-.8.5-.7.4-.4.3-.3.2-.3.3-.3.3-.3.2-.3.3-.5.6-.3.4-.3.4-.2.4h0a.4.4,0,0,1,.1-.3.9.9,0,0,1,.1-.5Zm-.2-11.6v-.5a.6.6,0,0,1,.1-.4c.1-.2.1-.4.3-.6l.3-.7.3-.3.3-.4c.1-.1.1-.2.3-.3l.3-.3.4-.3.3-.3.8-.4.8-.4,1.4-.7.6-.2.4-.3.2-.2h0v.2l-.3.4-.5.4-1.3.9-.8.4-.7.5-.4.2-.3.3-.3.3-.3.2-.3.3-.3.3-.5.5-.3.5-.3.4-.2.4Zm-1.2-29.2a.6.6,0,0,1-.1-.4,10.4,10.4,0,0,1-.3-1.2l-.3-1.7v-3.9l.3-1.7a10.4,10.4,0,0,1,.3-1.2,1,1,0,0,1,.1-.4l.2.4c0,.3.2.7.2,1.2l.3,1.7v1a3.1,3.1,0,0,1,.1,1,2.8,2.8,0,0,1-.1.9v1l-.3,1.7c0,.5-.2.9-.2,1.2a1.1,1.1,0,0,1-.2.4Z" style="fill: #231f1f"/>
        <path d="M36.1,190.6c2-3.7-.2-8.9-.2-8.9s-5.8,2.9-7.8,6.6c-.1.2-.2.3-.2.5l-.7-4.1c1.4-.3,5.4-1.4,7.1-4.5s-.2-8.9-.2-8.9-5.8,2.9-7.9,6.6a.5.5,0,0,1-.2.4l-.7-4.1c1.5-.4,4.5-1.5,5.8-3.9s-.2-7.8-.2-7.8-5.1,2.5-6.9,5.8a8.8,8.8,0,0,0-.5,1.5,5.9,5.9,0,0,0-1.4-1.8c-2.8-2.5-8.5-3.1-8.5-3.1s-.2,4.9,2.6,7.4,4.5,1.7,6.1,1.7l.4,2.1-.4-.4c-3.2-2.8-9.6-3.5-9.6-3.5s-.4,5.6,2.8,8.4,7,2,8.3,1.8l.7,4.1c-.1-.1-.2-.3-.4-.4-3.2-2.8-9.6-3.5-9.6-3.5s-.3,5.6,2.9,8.4,6.9,2,8.2,1.8l.8,4.1-.5-.4c-3.2-2.8-9.6-3.5-9.6-3.5s-.3,5.6,2.9,8.4,6.9,2,8.3,1.8l.7,4.1-.4-.4c-3.2-2.8-9.6-3.5-9.6-3.5s-.4,5.6,2.8,8.4,7,2,8.3,1.8l.7,4.2-.4-.5c-3.2-2.8-9.6-3.5-9.6-3.5s-.3,5.6,2.9,8.4,6.9,2,8.3,1.9l.7,4.1-.5-.4c-3.2-2.9-9.6-3.6-9.6-3.6s-.3,5.6,2.9,8.5,6.9,2,8.3,1.8l2.1,11.8,2.8-.5-1.6-9c1.4-.3,5.5-1.5,7.1-4.5s-.1-8.9-.1-8.9-5.8,2.8-7.9,6.6c-.1.1-.1.3-.2.4l-.7-4c1.4-.3,5.4-1.5,7.1-4.5s-.2-8.9-.2-8.9-5.8,2.8-7.8,6.6a.8.8,0,0,0-.2.4l-.7-4c1.4-.3,5.4-1.5,7.1-4.5s-.2-8.9-.2-8.9-5.8,2.8-7.8,6.6l-.3.4-.7-4c1.4-.3,5.5-1.5,7.1-4.6s-.2-8.9-.2-8.9-5.7,2.9-7.8,6.6l-.2.5-.7-4c1.4-.4,5.4-1.5,7.1-4.6M32,230l-.3-.2-.3-.4-.5-.4-.2-.2h-.3l-.3-.2-.3-.2-.3-.2h-.4l-.7-.3-.6-.3a3.3,3.3,0,0,1-1.2-.5l-.5-.2-.3-.3-.2-.2h.6l.5.2,1.3.3.7.2.7.3h.4l.3.2.3.2.3.3.3.2.3.3.4.5.3.4v.6a.1.1,0,0,0,.1.1L32,230Zm-1.8-10.4-.3-.3-.4-.3c-.1-.1-.2-.3-.4-.4l-.3-.2-.3-.2h-.2l-.4-.2-.3-.2h-.3l-.7-.3-.7-.3-1.2-.5-.4-.3-.4-.2v-.2h0c0,.1.1.1.2.2h.4l.5.2,1.2.3.7.2c.3,0,.5.2.8.3h.3l.4.2.3.2.3.3.3.2.2.2.4.5c.2.2.2.4.3.5s.1.3.2.4v.2h0l-.2-.3Zm-1.9-10.4-.2-.3-.4-.3-.5-.4L27,208l-.3-.2-.3-.2h-.3l-.3-.2h-.4l-.6-.3-.7-.3-1.2-.5-.5-.3-.3-.2-.2-.2H22l.2.2H23l1.3.4.7.2.7.3h.4l.3.2.4.2.3.3.2.2.3.2.4.5.3.5.2.4c0,.1,0,.1.1.2h0l-.3-.3Zm-1.8-10.4-.3-.3-.3-.3-.5-.4-.2-.2-.3-.2-.3-.2h-.3l-.4-.2h-.3l-.7-.3-.6-.3-1.3-.5-.4-.3-.3-.2-.2-.3h0l.2.2h.9l1.2.3.8.3.7.2.3.2.4.2.3.2.3.2.3.3.3.2a1,1,0,0,0,.4.5c.1.2.2.3.2.5l.2.3a.4.4,0,0,1,.1.3h.1l-.3-.3Zm-1.8-10.4-.3-.3-.4-.3c-.1-.2-.3-.3-.4-.4l-.3-.2L23,187l-.3-.2h-.3l-.3-.2h-.3l-.7-.3-.7-.3-1.2-.5-.5-.3-.3-.3c-.1,0-.1-.1-.1-.2h.2l.4.2h.4l1.3.3.7.2.7.3.4.2.4.2.3.2.3.2.3.3.2.2.4.5.3.5.2.3v.3h0l-.2-.3ZM22.8,178l-.2-.3-.4-.3a1,1,0,0,0-.5-.4l-.2-.2-.3-.2-.3-.2h-.3l-.3-.2-.4-.2-.6-.2-.7-.3-1.2-.5-.5-.3-.3-.3c-.1,0-.1-.1-.2-.2h.3l.3.2h.5l1.3.3.7.2.7.3.4.2.3.2.3.2.3.2.3.2.3.3.4.5.3.5.2.3v.3a.1.1,0,0,1,.1.1l-.3-.3Zm-.2-8c-.1-.1-.2-.2-.2-.3l-.4-.3-.4-.3-.2-.2h-.2l-.3-.2h-.3l-.3-.2H20l-.5-.3-.6-.2-1.1-.4-.4-.3-.3-.2v-.2h.9l1.1.3.6.2.7.3h.3l.3.2h.3l.3.2.2.3.2.2.4.4.2.4.2.3v.2h0l-.2-.2Zm3.8,9.8a4.3,4.3,0,0,0,.1-.5l.2-.6.2-.3.2-.3.2-.4.2-.3.3-.3.2-.2.6-.6.6-.4,1.1-.7.4-.3.3-.3.2-.2h0a.4.4,0,0,1-.1.3c0,.1-.1.2-.2.4l-.3.4-1,.9a1.2,1.2,0,0,0-.5.5l-.6.5-.2.2-.3.3-.2.2-.2.3-.2.3-.2.2-.3.6-.2.4a.8.8,0,0,0-.2.4v.3h0c0-.1-.1-.1,0-.3v-.4Zm-2.1-9.4-.2.3h0v-.3a.4.4,0,0,1,.1-.3.9.9,0,0,1,.1-.5l.2-.5a.4.4,0,0,1,.1-.3l.2-.3v-.2l.2-.3.3-.3.2-.2.5-.5.6-.4.9-.6.4-.3.2-.2.2-.2h0a.4.4,0,0,1-.1.3l-.2.3-.3.4-.8.7-.5.5-.5.4-.2.2-.2.3-.2.2-.2.2-.2.3v.2l-.3.4-.2.4a.8.8,0,0,0-.1.4Zm11.3,61.5a.9.9,0,0,1,.1-.5c.1-.2.1-.4.2-.6l.2-.4v-.3l.2-.3.3-.3c.1-.1.2-.2.2-.3l.3-.3.6-.5.6-.4,1.1-.8.4-.3.3-.2v-.2h.1a.4.4,0,0,1-.1.3l-.2.3a.8.8,0,0,1-.4.4,7.6,7.6,0,0,1-.9.9l-.6.5-.5.5-.3.3-.2.2-.3.3c0,.1-.1.2-.2.3l-.2.2c0,.1-.1.2-.1.3s-.3.3-.3.5l-.3.5c0,.1-.1.2-.1.3l-.2.4h0v-.3C35.6,232.2,35.5,232.1,35.6,231.9Zm-1.9-10.4c.1-.2.1-.4.2-.5a1.4,1.4,0,0,1,.2-.6c0-.2.1-.3.1-.4l.2-.3.2-.3.3-.3.2-.3.3-.3.6-.5.6-.4,1.1-.8.4-.3.3-.2a.3.3,0,0,1,.1-.2h0v.2l-.2.4-.4.4-1,.9-.5.5-.5.5-.3.2-.2.3-.3.3-.2.3c-.1,0-.1.1-.2.2l-.2.3-.3.5-.2.5-.2.3v.3h0v-.7Zm-1.8-10.4c0-.2.1-.4.1-.6s.1-.4.2-.6l.2-.3.2-.3c0-.1.1-.2.2-.3l.2-.3.3-.3.3-.3a1.2,1.2,0,0,1,.5-.5l.6-.5,1.1-.7.4-.3.3-.2c.1-.1.1-.2.2-.2h0a.3.3,0,0,1-.1.2l-.2.4-.3.4-1,.9-.5.5-.6.5-.2.2-.3.3-.2.3-.2.2-.2.3-.2.3-.3.5-.2.4-.2.4a.8.8,0,0,0-.1.3h0v-.6Zm-1.8-10.4a1.3,1.3,0,0,1,.1-.6,1.4,1.4,0,0,1,.2-.6.4.4,0,0,0,.1-.3l.2-.3.2-.3.3-.3.2-.3.3-.3.6-.5.6-.5L34,196l.4-.3.3-.3c.1,0,.1-.1.1-.2h.1v.2c-.1.1-.1.3-.2.4l-.4.4-.9.9-.6.5-.5.5-.3.2-.2.3-.3.3-.2.2c0,.1-.1.2-.2.3s-.1.2-.1.3a1,1,0,0,0-.4.5l-.2.4c0,.2-.1.3-.1.4l-.2.3h0v-.2a.6.6,0,0,1,.1-.4ZM28.2,191h0v-.7c.1-.1.1-.3.2-.5a1.4,1.4,0,0,1,.2-.6v-.3l.2-.3.2-.3.2-.3.3-.3.3-.3.6-.5.6-.5,1-.7.5-.3.2-.3.2-.2h0v.2l-.3.4-.3.4-1,.9-.5.5a1.2,1.2,0,0,0-.5.5l-.3.2-.3.3-.2.2-.2.3-.2.3-.2.3-.3.5-.2.4-.2.4v.3Zm-5.3-24v-.3a9.3,9.3,0,0,1-.5-1c-.1-.4-.3-.9-.4-1.4s-.1-.5-.2-.7-.1-.6-.2-.9a2.5,2.5,0,0,0-.1-.8,2.5,2.5,0,0,0-.1-.8v-2.8l.2.3a5.1,5.1,0,0,1,.4,1,5,5,0,0,1,.4,1.3,2.4,2.4,0,0,1,.2.8c.1.3.1.6.2.8s.1.6.1.8a2.5,2.5,0,0,1,.1.8,8.6,8.6,0,0,1,.1,1.5c0,.4-.1.8-.1,1a.6.6,0,0,1-.1.4Z" style="fill: #231f1f"/>
        <path d="M100.9,193.9c3.2-2.8,2.8-8.4,2.8-8.4s-6.4.7-9.6,3.5l-.3.4.7-4c1.4.1,5.6.4,8.2-1.9s2.9-8.4,2.9-8.4-6.5.7-9.7,3.5l-.3.4.7-4.2c1.6.1,4.7.1,6.8-1.7s2.5-7.4,2.5-7.4-5.6.7-8.4,3.1a6,6,0,0,0-1.1,1.2,3.5,3.5,0,0,0-.7-2.1c-1.8-3.3-6.8-5.8-6.8-5.8s-2,4.5-.2,7.8a9.1,9.1,0,0,0,5.2,3.7l-.4,2.1c0-.2-.1-.3-.2-.5-2.1-3.8-7.9-6.6-7.9-6.6s-2.2,5.1-.1,8.9,5.8,4.2,7.1,4.5l-.7,4.1-.3-.5c-2-3.7-7.8-6.6-7.8-6.6s-2.2,5.2-.2,8.9,5.9,4.2,7.2,4.5l-.7,4.1-.3-.5c-2-3.7-7.8-6.6-7.8-6.6s-2.3,5.2-.2,8.9,5.8,4.2,7.2,4.5l-.8,4.2a1.4,1.4,0,0,0-.2-.6c-2.1-3.7-7.9-6.6-7.9-6.6s-2.2,5.2-.1,8.9,5.8,4.3,7.1,4.6l-.7,4.1-.3-.6c-2-3.7-7.8-6.6-7.8-6.6s-2.2,5.2-.2,8.9,5.8,4.3,7.2,4.6l-.7,4.1-.3-.6c-2.1-3.7-7.8-6.6-7.8-6.6s-2.3,5.2-.2,8.9,5.8,4.3,7.2,4.6l-2.1,11.8,2.8.5,1.6-9c1.4.2,5.6.5,8.2-1.8s2.9-8.4,2.9-8.4-6.4.7-9.6,3.5l-.4.3.7-4c1.5.2,5.6.5,8.2-1.8s2.9-8.4,2.9-8.4-6.4.7-9.6,3.5l-.3.3.7-4c1.4.2,5.6.5,8.2-1.8s2.9-8.5,2.9-8.5-6.5.8-9.7,3.6l-.3.3.7-4c1.4.2,5.6.5,8.2-1.8s2.9-8.5,2.9-8.5-6.4.7-9.6,3.6l-.4.3.7-4c1.5.2,5.6.4,8.3-1.9M83.5,229.6a.8.8,0,0,0-.1-.4l-.2-.4-.3-.5-.2-.3c-.1-.1-.2-.2-.2-.3l-.2-.3-.3-.2-.2-.3-.3-.2-.5-.5-.6-.5-.9-.9-.4-.4c-.1-.1-.1-.3-.2-.4s0-.2-.1-.2h.1a.3.3,0,0,0,.1.2l.3.3.4.3,1.1.7.6.5.6.5.3.3.2.3.3.3.2.3.2.3c0,.1.1.2.1.3a1.4,1.4,0,0,1,.2.6,1.3,1.3,0,0,1,.1.6c.1.1.1.2.1.4v.2h0Zm1.9-10.4-.2-.4a.8.8,0,0,0-.2-.4l-.3-.6c-.1,0-.1-.1-.2-.2l-.2-.3-.2-.3-.2-.2-.3-.3-.2-.2-.6-.5-.5-.5-1-.9L81,214l-.2-.4a.4.4,0,0,1-.1-.3h0l.2.2.3.3.4.3,1,.7.6.5.6.5.3.2.3.4.2.3.2.3.2.3v.3l.3.6a.7.7,0,0,0,.1.5v.7h0Zm1.8-10.4c0-.1-.1-.3-.1-.4l-.3-.5-.3-.5c0-.1-.1-.1-.1-.2l-.2-.3-.3-.3-.2-.2-.2-.3-.3-.3-.5-.5-.6-.4-.9-.9-.4-.4c-.1-.2-.2-.3-.2-.4a.4.4,0,0,1-.1-.3h0l.2.2.3.3.4.3,1.1.7.6.4.6.6.2.2.3.3.2.3.2.4.2.3.2.3c.1.2.1.4.2.6a1.1,1.1,0,0,1,.1.5c0,.2,0,.3.1.4v.3h0l-.2-.3Zm1.9-10.4c-.1-.1-.1-.3-.2-.4s-.1-.3-.2-.5l-.3-.5-.2-.2-.2-.3c-.1-.1-.2-.2-.2-.3l-.3-.2-.2-.3-.3-.3c-.2-.1-.3-.3-.5-.5l-.6-.4-.9-.9-.4-.5-.2-.3a.4.4,0,0,0-.1-.3h.1v.2l.3.3.4.3,1.1.7.6.4.6.5.3.3.2.3.3.3.2.4c0,.1.1.2.2.3s.1.2.1.3a1.4,1.4,0,0,1,.2.6,1.1,1.1,0,0,1,.1.5.8.8,0,0,1,.1.4v.3h0a.4.4,0,0,1-.1-.3Zm1.8-10.5-.2-.3c0-.2-.1-.3-.2-.5l-.3-.5-.2-.3-.2-.2-.2-.3-.2-.3-.3-.2-.2-.3-.6-.5-.5-.5-1-.9-.3-.4-.2-.3a.4.4,0,0,1-.1-.3h0l.2.2.3.3.4.3,1.1.7.5.4.6.5.3.3.3.3.2.3.2.3.2.4a.4.4,0,0,1,.1.3c.2.2.2.4.3.6a.9.9,0,0,0,.1.5v.7h0a1.6,1.6,0,0,0-.1-.4Zm1.8-10.4c0-.1-.1-.2-.1-.3l-.3-.5c0-.2-.1-.3-.3-.5v-.3c-.1-.1-.2-.1-.2-.2l-.3-.3-.2-.3-.2-.2-.3-.3-.5-.5-.6-.5-.9-.9-.4-.4-.2-.3a.4.4,0,0,1-.1-.3h.1a.3.3,0,0,0,.1.2l.3.2.4.3,1.1.8.6.4.6.5.3.3.2.3.3.3.2.3v.3l.2.4c.1.2.1.4.2.6a.9.9,0,0,1,.1.5c0,.2,0,.3.1.4v.3h0l-.2-.4Zm2.5-7.6v-.3c-.1-.1-.1-.2-.2-.4l-.3-.4c0-.1-.1-.2-.1-.3l-.2-.2c-.1-.1-.1-.2-.2-.2l-.2-.3-.2-.2-.3-.2-.4-.5-.5-.4-.8-.8-.3-.3a.8.8,0,0,1-.2-.4v-.2h0l.2.2.2.2.4.3.9.6a1,1,0,0,1,.5.4l.6.4.2.3.2.2.2.3.2.3.2.3v.3a.8.8,0,0,1,.2.5.8.8,0,0,1,.1.4v.4a.1.1,0,0,1,0,.2h0v-.3Zm.2,10.6.3-.5.4-.5.3-.2.3-.2.3-.3.3-.2.3-.2H98l.7-.3.7-.2,1.3-.4h.9l.2-.2h0l-.2.2-.3.2-.5.3a3.3,3.3,0,0,1-1.2.5l-.6.3-.7.3h-.4l-.3.2-.3.2H97l-.3.2-.2.2-.5.4-.3.3c-.2.1-.2.2-.3.3l-.3.3h.1v-.6Zm1.3-9.6-.2.2h0v-.2a.4.4,0,0,1,.1-.3l.3-.4.3-.5.2-.2.3-.2.3-.2.3-.2h.3l.3-.2.6-.2.6-.2,1.1-.3h.8l.2-.2h-.1l-.3.3-.4.2-1.1.5-.6.2-.6.3h-.6l-.2.2h-.3c-.1.1-.2.1-.2.2l-.3.2-.4.3-.3.3-.2.3ZM86.3,232.5a.5.5,0,0,1,.3-.4,1,1,0,0,1,.4-.5l.2-.3.3-.2.3-.2.3-.2.4-.2.3-.2.8-.3.7-.2,1.2-.3H92l.4-.2h.2c0,.1-.1.1-.1.2l-.4.3-.4.3-1.2.5-.7.2-.7.3-.3.2h-.4l-.3.2-.3.2c-.1.1-.2.1-.2.2l-.3.2-.5.3-.3.4-.3.3-.2.2h0a.4.4,0,0,1,.1-.3l.2-.4Zm1.8-10.4.3-.4a1,1,0,0,1,.4-.5l.2-.3.3-.2.3-.2.4-.2.3-.2.4-.2.7-.3.7-.2,1.3-.3h.4l.4-.2h.3l-.2.2-.3.3-.5.3-1.2.5-.7.2-.7.3-.3.2h-.3l-.3.2-.3.2-.3.2-.3.2-.4.3-.4.4-.3.3-.2.2h0v-.2l.2-.4Zm1.8-10.4.3-.4.4-.5.3-.3.3-.2.3-.2.3-.2.3-.3h.4l.7-.3.7-.2,1.3-.3.5-.2h.6l-.2.2-.3.3-.5.2-1.2.6-.7.2-.6.3-.4.2h-.3l-.3.2-.3.2-.3.2H91l-.5.4c-.1.1-.2.3-.4.4l-.2.3-.3.2h.1a.3.3,0,0,1,.1-.2c0-.1.1-.2.1-.4Zm1.9-10.4c.1-.1.1-.3.3-.4a1,1,0,0,1,.4-.5l.2-.3.3-.2.3-.3.3-.2.4-.2h.3l.8-.3.7-.2,1.2-.3.5-.2h.6v.2l-.4.3-.4.2-1.2.5-.7.3-.7.3h-.3l-.3.2-.4.2-.3.2h-.2l-.3.2-.5.4-.3.4-.3.3-.2.2h0v-.2l.2-.4Zm1.5-9.7h0c.1,0,.1-.1.1-.2s.1-.3.2-.4l.3-.5.4-.5.3-.2.2-.2.3-.3.4-.2.3-.2h.4l.7-.3.7-.2,1.3-.3.5-.2h.3l.2-.2h.1l-.2.2-.3.2-.5.3-1.2.5-.7.3-.7.3h-.3l-.3.2-.3.2h-.3l-.3.2-.3.2-.4.4-.4.3-.3.3-.2.3Zm3.3-24.3a1,1,0,0,1-.1-.4v-2.5c0-.3.1-.5.1-.8s.1-.6.1-.8.1-.6.2-.8a1.9,1.9,0,0,1,.2-.8c.1-.5.3-1,.4-1.4l.4-.9.2-.4v2.9c0,.2-.1.5-.1.8s-.1.5-.1.8-.1.5-.2.8a2.4,2.4,0,0,1-.2.8,10.4,10.4,0,0,1-.4,1.3l-.4,1-.2.4Z" style="fill: #231f1f"/>
        <path d="M227.1,214.5a4.9,4.9,0,1,1,5-4.8A4.9,4.9,0,0,1,227.1,214.5Zm2.1-13.5V163.2a2,2,0,0,0-2.1-2,2,2,0,0,0-2,2V201a9,9,0,1,0,4.1,0Zm-2.1,22.6a13.2,13.2,0,0,1-7.7-23.9,1.9,1.9,0,0,0,.8-1.6v-39a5.7,5.7,0,0,1,.3-1.8.3.3,0,0,1,.1-.2,6.9,6.9,0,0,1,13.4,2v39a2,2,0,0,0,.9,1.6,13.2,13.2,0,0,1-7.8,23.9Zm-38.4,5.8h0a41.1,41.1,0,0,1-29.3-12.1,41.1,41.1,0,0,1-10.7-40.2,109.4,109.4,0,0,0,14.4.7l.2.2a.1.1,0,0,1,0,.2,23.2,23.2,0,0,0-2.2,7.9,12.2,12.2,0,0,0,1,7.5,14.6,14.6,0,0,0,3,3.5l.3.3a97.9,97.9,0,0,1,10.8,12.4,20.9,20.9,0,0,1,2.9,4.4l.6,1.3.8,1.7a5.2,5.2,0,0,0,4.8,3h.3a5.2,5.2,0,0,0,4.7-3.4,11.1,11.1,0,0,0,.7-3.7,29.6,29.6,0,0,0-.7-5.2,23.8,23.8,0,0,1-.5-2.6,4.7,4.7,0,0,1,.2-2.4,4.1,4.1,0,0,1,1-1.4l.3-.4c3.6-4.3,4.7-10.5,3.1-17.2a7.8,7.8,0,0,0-5.5-5.6,24.4,24.4,0,0,0-6-.3h-.3a7,7,0,0,1-5.9-3.1c-1.1-1.8-.9-4.1.5-6.4a4.9,4.9,0,0,1,.7-1.1,7.4,7.4,0,0,0,1.8-2.9c.7-2.3-.3-4.6-2.7-6-.1,0-.2-.2-.1-.2s1.2-.9,2.7-1.3a10.6,10.6,0,0,0,5.5-2.9c1.4-1.6,1.7-4.8.8-7.1h2.8a41.1,41.1,0,0,1,27.6,10.5,9.7,9.7,0,0,0-.1,1.8v6.3a13,13,0,0,0-4.9.9c-5.2,2.1-10.3,5.5-9.6,14.3a12.3,12.3,0,0,0,4.8,9.2,9.5,9.5,0,0,0,5.5,1.8l2-.2a6.5,6.5,0,0,0,2.2-1.1v6.7a17.4,17.4,0,0,0-6.4,13.3,17.1,17.1,0,0,0,3.8,10.8,41.8,41.8,0,0,1-24.9,8.2Zm-7.4-81.8c.3,0,.5.1.7.5a4.3,4.3,0,0,1,0,3.4c-.7.9-2.1,1.2-3.5,1.6s-4.2,1.2-5.3,3.5a4.2,4.2,0,0,0,1.7,5.4c1.1.7,1,1.1.9,1.4a9.3,9.3,0,0,1-1.1,1.6,6.5,6.5,0,0,0-1,1.5c-2.2,3.6-2.3,7.3-.5,10.4a10.9,10.9,0,0,0,9.5,5.1h.3a20.4,20.4,0,0,1,5,.3,3.7,3.7,0,0,1,2.5,2.5c.7,3.2,1.5,9.2-2.3,13.7l-.3.4a7.9,7.9,0,0,0-1.6,2.3,7.6,7.6,0,0,0-.5,4.6,25,25,0,0,0,.5,2.9,23.2,23.2,0,0,1,.6,4.4,5.9,5.9,0,0,1-.4,2.3,1.1,1.1,0,0,1-1.1.8,1.4,1.4,0,0,1-1.3-.7l-.7-1.6-.6-1.4a27.5,27.5,0,0,0-3.4-5.2,112.4,112.4,0,0,0-11.2-12.9l-.3-.2a16.9,16.9,0,0,1-2.3-2.5,9.9,9.9,0,0,1-.5-5.2,19.5,19.5,0,0,1,1.8-6.5,4,4,0,0,0-.2-4.1,4.1,4.1,0,0,0-3.6-2.1,108.9,108.9,0,0,1-13.1-.6,41.4,41.4,0,0,1,31.3-25.6Zm34.9,38a8.1,8.1,0,0,0-1.8,1.2c-.5.3-1,.7-1.3.7a4.7,4.7,0,0,1-4.2-.9,8.6,8.6,0,0,1-3.2-6.2c-.5-5.9,2.3-8.3,7.1-10.2a8.9,8.9,0,0,1,3.4-.7Zm21.9,11.5v-38a10.9,10.9,0,0,0-11-10.8,10.7,10.7,0,0,0-9.2,5.1,45.9,45.9,0,0,0-61.4,2.7,45.3,45.3,0,0,0,32.2,77.3h0a45.5,45.5,0,0,0,27.8-9.4,17.4,17.4,0,0,0,28-13.6,17.4,17.4,0,0,0-6.4-13.3Z" style="fill: #333652"/>
      </g>
    </g>
  </g>
</svg>
